<svg xmlns="http://www.w3.org/2000/svg" viewBox="0 0 512 512" role="img" aria-labelledby="title desc"><title id="title">sun mnemonic scene</title><desc id="desc">Text-free animated style illustration cue for skating sun.</desc><defs><radialGradient id="bg" cx="30%" cy="20%"><stop offset="0" stop-color="#fff7cf"/><stop offset="1" stop-color="#dff5ff"/></radialGradient><filter id="shadow"><feDropShadow dx="0" dy="16" stdDeviation="16" flood-color="#123" flood-opacity=".18"/></filter></defs><rect width="512" height="512" rx="72" fill="url(#bg)"/><path d="M44 404 C116 338 220 452 300 354 C376 260 430 306 472 234" fill="none" stroke="#ffffff" stroke-width="42" stroke-linecap="round" opacity=".78"/><g filter="url(#shadow)"><path d="M52 20 L60 38 L80 28 L68 48 L90 52 L68 58 L80 78 L60 66 L52 88 L44 66 L24 78 L36 58 L14 52 L36 48 L24 28 L44 38 Z" fill="#ff8d1a" stroke="#142033" stroke-width="14" stroke-linejoin="round" transform="translate(0 0) scale(4.6)"/></g><g fill="#142033" opacity=".9"><circle cx="228" cy="226" r="13"/><circle cx="286" cy="220" r="13"/><path d="M222 278 C252 306 292 302 320 270" fill="none" stroke="#142033" stroke-width="14" stroke-linecap="round"/></g><g fill="#fff" opacity=".9"><circle cx="124" cy="116" r="18"/><circle cx="412" cy="134" r="11"/><circle cx="382" cy="396" r="14"/></g></svg>